# xmcd
#
# Track frame offsets: 
#        210
#        12227
#        25799
#        41678
#        54951
#        67361
#        81093
#        94187
#        109169
#        121498
#        136419
#        149992
#        162629
#        175807
#        188638
#        199847
#        211695
#        225284
#        238174
#        251616
#        264880
#        278745
#        292246
#
# Disc length: 4078 seconds
#
# Revision: 0
# Processed by: cddbd v1.5.2PL0 Copyright (c) Steve Scherf et al.
# Submitted via: ExactAudioCopy v0.95b4
#
DISCID=570fec17
DTITLE=Big Bill Broonzy - His 23 Greatest Songs (1927-1942)
DYEAR=1900
DGENRE=Blues
TTITLE0=House Rent Stomp
TTITLE1=Bill Bill Blues
TTITLE2=Down In The Basement Blues
TTITLE3=Saturday Night Rub
TTITLE4=Police Station Blues
TTITLE5=Mr. Conductor Man
TTITLE6=Bull Cow Blues
TTITLE7=Milk Cow Blues
TTITLE8=Mississippi River Blues
TTITLE9=C.C. Rider
TTITLE10=Evil Woman Blues
TTITLE11=Louise, Louise Blues
TTITLE12=New Shake 'Em On
TTITLE13=WPA Rag
TTITLE14=I Believe I'll Go Back Home
TTITLE15=Just A Dream (On My Mind)
TTITLE16=Plow Hand Blues
TTITLE17=Looking For My Baby
TTITLE18=Lone Wolf Blues
TTITLE19=Lonesome Road Blues
TTITLE20=Key To The Highway
TTITLE21=Tell Me Baby
TTITLE22=Hard Hearted Woman
EXTD=
EXTT0=
EXTT1=
EXTT2=
EXTT3=
EXTT4=
EXTT5=
EXTT6=
EXTT7=
EXTT8=
EXTT9=
EXTT10=
EXTT11=
EXTT12=
EXTT13=
EXTT14=
EXTT15=
EXTT16=
EXTT17=
EXTT18=
EXTT19=
EXTT20=
EXTT21=
EXTT22=
PLAYORDER=
